Coordinates
version=1
nRows=17
nColumns=24
inDegrees=yes

Units are S.I. units (second, meters, Newtons, ...)
Angles are in degrees.

endheader
time	pelvis_tilt	pelvis_list	pelvis_rotation	pelvis_tx	pelvis_ty	pelvis_tz	hip_flexion_r	hip_adduction_r	hip_rotation_r	knee_angle_r	ankle_angle_r	subtalar_angle_r	mtp_angle_r	hip_flexion_l	hip_adduction_l	hip_rotation_l	knee_angle_l	ankle_angle_l	subtalar_angle_l	mtp_angle_l	lumbar_extension	lumbar_bending	lumbar_rotation
      4.29000000	     -9.44764973	      1.93105524	      3.03073802	      0.04943641	      0.94539833	      0.05428975	     -2.20083554	     -4.38992415	     -9.34861636	    -11.37168995	     11.83860968	      0.00000000	      0.00000000	     22.65792223	     -1.84569969	     -5.79216516	      3.35158597	      1.67944136	      0.00000000	      0.00000000	      1.39424874	     -5.76688540	      6.88870523
      4.30000000	     -9.38434813	      2.01744861	      2.67907662	      0.05049315	      0.94413048	      0.05195052	     -2.60139748	     -4.68154746	     -9.15248626	    -11.73487154	     11.87269420	      0.00000000	      0.00000000	     22.51899459	     -1.68064199	     -5.43915726	      2.77356189	      1.19836586	      0.00000000	      0.00000000	      1.44171629	     -5.88389684	      7.02365108
      4.31000000	     -9.10597945	      2.40917999	      2.30636863	      0.05173933	      0.94322709	      0.04948745	     -3.10059700	     -5.33092563	     -8.86941896	    -12.46663208	     12.20964406	      0.00000000	      0.00000000	     22.03151194	     -1.21251733	     -5.31918581	      2.27048147	      0.36358456	      0.00000000	      0.00000000	      1.24522757	     -6.34557290	      7.13220707
      4.32000000	     -9.02696343	      2.48707588	      1.93762023	      0.05310301	      0.94215371	      0.04709069	     -3.51193654	     -5.62422434	     -8.68829698	    -12.80527725	     12.09378291	      0.00000000	      0.00000000	     21.89822456	     -1.10718154	     -5.06398025	      1.40264778	     -0.19486129	      0.00000000	      0.00000000	      1.33669841	     -6.48417014	      7.26698532
      4.33000000	     -8.86981378	      2.67194832	      1.63241498	      0.05445152	      0.94134463	      0.04456817	     -3.91876532	     -6.04649177	     -8.42389701	    -13.37961196	     11.90630500	      0.00000000	      0.00000000	     21.73393435	     -0.88710888	     -4.92005473	      0.39666754	     -0.87105203	      0.00000000	      0.00000000	      1.32533790	     -6.74738856	      7.29150743
      4.34000000	     -8.55580136	      3.27661506	      1.20032031	      0.05602020	      0.94096064	      0.04209742	     -4.31612036	     -6.97267057	     -8.17310447	    -14.33221656	     11.99221119	      0.00000000	      0.00000000	     21.15129298	     -0.26479853	     -5.34081849	     -0.17616429	     -1.70777238	      0.00000000	      0.00000000	      1.15845501	     -7.49160550	      7.39907190
      4.35000000	     -8.41222250	      3.42838002	      0.94400399	      0.05740985	      0.94055337	      0.03940465	     -4.60986718	     -7.38695914	     -8.00756967	    -15.03565289	     11.58491333	      0.00000000	      0.00000000	     20.94767114	     -0.09129568	     -5.31951627	     -1.10041021	     -2.24373180	      0.00000000	      0.00000000	      1.17650380	     -7.72242238	      7.38565317
      4.36000000	     -8.21721310	      3.96025198	      0.59590753	      0.05893872	      0.94049456	      0.03679825	     -4.77364931	     -8.25354436	     -7.85862721	    -16.11174645	     11.26752075	      0.00000000	      0.00000000	     20.50901187	      0.45524127	     -5.79106338	     -1.71903403	     -2.68465517	      0.00000000	      0.00000000	      1.17067676	     -8.40111404	      7.44901044
      4.37000000	     -8.06370227	      4.34983633	      0.29513258	      0.06022947	      0.94063929	      0.03400336	     -4.81777381	     -8.98695886	     -7.67441444	    -17.24095421	     10.74483081	      0.00000000	      0.00000000	     20.13278872	      0.86661873	     -6.13324306	     -2.33122600	     -3.00535932	      0.00000000	      0.00000000	      1.16471923	     -8.88793081	      7.38907312
      4.38000000	     -7.92934039	      4.75284857	      0.03780535	      0.06147542	      0.94103444	      0.03122507	     -4.73776166	     -9.73725042	     -7.51139405	    -18.53631366	     10.08444427	      0.00000000	      0.00000000	     19.73589258	      1.30515146	     -6.51952673	     -2.87755539	     -3.12142783	      0.00000000	      0.00000000	      1.17934931	     -9.40411359	      7.29220968
      4.39000000	     -7.79553721	      5.16089659	     -0.22033688	      0.06260894	      0.94167190	      0.02843021	     -4.52438917	    -10.51044339	     -7.33901232	    -20.01639964	      9.28965432	      0.00000000	      0.00000000	     19.29408307	      1.76125452	     -6.93481380	     -3.34621996	     -3.08198520	      0.00000000	      0.00000000	      1.18170084	     -9.91473093	      7.15803396
      4.40000000	     -7.66782235	      5.56533596	     -0.49949925	      0.06360434	      0.94252972	      0.02565874	     -4.13991696	    -11.29236938	     -7.09885121	    -21.73553463	      8.45564851	      0.00000000	      0.00000000	     18.79292106	      2.23239487	     -7.43482916	     -3.67021764	     -2.97054718	      0.00000000	      0.00000000	      1.17810627	    -10.40664697	      7.03280240
      4.41000000	     -7.49959812	      5.87127436	     -0.71689788	      0.06448032	      0.94360764	      0.02285318	     -3.73255309	    -11.96771743	     -6.91790510	    -23.50788493	      7.38513371	      0.00000000	      0.00000000	     18.23102247	      2.63597811	     -7.79278578	     -3.98372279	     -2.69221457	      0.00000000	      0.00000000	      1.09618817	    -10.77945453	      6.79114750
      4.42000000	     -7.30895330	      6.16575320	     -0.97551960	      0.06529155	      0.94482636	      0.02007514	     -3.20583519	    -12.64491076	     -6.67663003	    -25.46911461	      6.31035675	      0.00000000	      0.00000000	     17.58362448	      3.04870167	     -8.20548215	     -4.17986702	     -2.36027027	      0.00000000	      0.00000000	      0.99221913	    -11.10843310	      6.57369069
      4.43000000	     -7.13147086	      6.56100948	     -1.39427269	      0.06599180	      0.94605490	      0.01759977	     -2.46337064	    -13.43286377	     -6.21589240	    -27.64115237	      5.30985085	      0.00000000	      0.00000000	     16.85931236	      3.55350935	     -8.89025624	     -4.19034447	     -1.96740934	      0.00000000	      0.00000000	      0.93218851	    -11.54704279	      6.45735162
      4.44000000	     -6.90163269	      6.70852432	     -1.69764577	      0.06652780	      0.94739152	      0.01505763	     -1.74180591	    -13.93730104	     -5.88439606	    -29.84743433	      4.23284357	      0.00000000	      0.00000000	     16.07390064	      3.84988479	     -9.27002612	     -4.17934716	     -1.65676185	      0.00000000	      0.00000000	      0.75691397	    -11.69011144	      6.19901704
      4.45000000	     -6.71102570	      6.94433656	     -2.20639111	      0.06695829	      0.94859860	      0.01286955	     -0.76067989	    -14.52849985	     -5.29802789	    -32.26184871	      3.35294806	      0.00000000	      0.00000000	     15.23644606	      4.22030474	    -10.02273340	     -3.93799084	     -1.41341294	      0.00000000	      0.00000000	      0.67897761	    -11.91751744	      6.12879421
